<?xml version="1.0" encoding="UTF-8"?>
<svg xmlns="http://www.w3.org/2000/svg" xmlns:xlink="http://www.w3.org/1999/xlink" width="250pt" height="279pt" viewBox="0 0 250 279" version="1.1">
<g id="surface1">
<path style=" stroke:none;fill-rule:nonzero;fill:rgb(0%,0%,0%);fill-opacity:1;" d="M 188.484375 0.21875 C 183.714844 0.980469 179.082031 2.921875 175.277344 5.753906 C 169.742188 9.894531 166.59375 14.539062 166.089844 19.3125 C 165.980469 20.359375 165.695312 21.273438 165.171875 22.296875 C 164.078125 24.5 163.226562 27.222656 162.59375 30.625 C 160.382812 42.503906 160.296875 46.839844 161.9375 66.042969 C 162.765625 75.742188 163.335938 80.691406 164.035156 83.808594 C 165.324219 89.714844 165.695312 95.207031 164.996094 98.476562 C 164.648438 100.199219 163.75 102.511719 163.183594 103.25 L 162.808594 103.753906 L 160.886719 103.097656 C 152.882812 100.351562 139.9375 98.695312 132.085938 99.371094 C 123.863281 100.089844 121.871094 100.765625 112.402344 106 C 106.980469 108.984375 102.214844 110.707031 90.558594 113.890625 C 83.078125 115.914062 79.730469 116.960938 77.960938 117.8125 C 77.128906 118.226562 74.660156 119.707031 72.492188 121.101562 C 67.375 124.417969 65.410156 125.527344 62.695312 126.660156 C 60.027344 127.773438 58.125 128.753906 54.320312 131 C 52.746094 131.9375 50.886719 133.003906 50.167969 133.351562 C 49.464844 133.722656 47.652344 134.8125 46.140625 135.773438 C 43.800781 137.296875 43.320312 137.515625 42.753906 137.40625 C 42.402344 137.34375 40.828125 136.730469 39.253906 136.078125 C 37.703125 135.402344 35.601562 134.574219 34.597656 134.246094 C 32.738281 133.59375 28.886719 132.742188 27.925781 132.742188 C 27.140625 132.742188 26.375 133.746094 25.125 136.382812 C 24.558594 137.625 24.035156 138.628906 23.945312 138.628906 C 23.878906 138.628906 23.246094 138.34375 22.523438 137.972656 C 18.980469 136.1875 14.34375 134.703125 12.332031 134.703125 L 11.21875 134.703125 L 11.085938 135.621094 C 10.957031 136.621094 11.21875 138.34375 11.613281 139.128906 C 11.742188 139.390625 12.332031 140.394531 12.925781 141.375 C 13.492188 142.332031 14.105469 143.574219 14.238281 144.121094 C 14.476562 145.015625 14.453125 145.167969 14.039062 145.863281 C 13.777344 146.277344 13.035156 147.105469 12.398438 147.71875 C 10.738281 149.285156 10.058594 150.160156 10.058594 150.683594 C 10.058594 150.945312 10.5625 151.75 11.152344 152.46875 C 11.765625 153.1875 12.246094 153.820312 12.246094 153.886719 C 12.222656 154.105469 7.304688 156.285156 6.800781 156.285156 C 6.539062 156.285156 5.183594 155.847656 3.804688 155.304688 C 2.449219 154.757812 1.09375 154.320312 0.789062 154.320312 C -0.285156 154.320312 -0.21875 155.871094 0.917969 158.203125 C 1.707031 159.792969 1.902344 159.96875 5.140625 161.863281 C 6.472656 162.648438 7.808594 163.5 8.15625 163.78125 L 8.746094 164.261719 L 6.234375 165.765625 C 4.855469 166.617188 3.71875 167.355469 3.71875 167.421875 C 3.71875 167.488281 4.59375 168.402344 5.6875 169.449219 C 7.808594 171.496094 9.882812 172.9375 12.160156 173.960938 C 13.535156 174.570312 17.691406 175.855469 19.464844 176.226562 C 20.535156 176.445312 30.769531 181.632812 34.398438 183.769531 C 36.039062 184.75 37.789062 185.90625 38.292969 186.320312 C 38.773438 186.734375 40.632812 188.761719 42.402344 190.808594 C 47.890625 197.132812 50.734375 199.550781 56.792969 203.015625 C 59.898438 204.78125 68.601562 209.207031 75.335938 212.453125 C 77.632812 213.542969 80.714844 215.242188 82.226562 216.226562 C 85.441406 218.296875 88.328125 219.757812 90.316406 220.300781 C 92.261719 220.824219 97.859375 220.847656 99.21875 220.324219 L 100.136719 219.953125 L 101.339844 224.898438 C 102.761719 230.65625 103.917969 235.972656 104.574219 239.65625 C 105.011719 241.96875 105.054688 243.121094 105.078125 249.683594 C 105.101562 256.65625 105.144531 257.203125 105.601562 258.835938 C 106.761719 263.023438 110.761719 269.539062 114.242188 272.984375 C 116.339844 275.054688 117.785156 276.035156 120.101562 276.996094 C 121.371094 277.519531 121.785156 277.5625 125.195312 277.625 C 128.804688 277.714844 128.957031 277.734375 130.335938 278.367188 L 131.757812 279.042969 L 136.351562 277.410156 L 140.941406 275.773438 L 144.441406 275.511719 C 146.367188 275.359375 149.011719 275.011719 150.300781 274.726562 C 153.210938 274.074219 154.214844 274.160156 156.511719 275.316406 L 158.195312 276.167969 L 158.785156 275.601562 C 159.597656 274.835938 159.660156 274.378906 159.160156 273.332031 C 158.589844 272.175781 157.957031 271.71875 156.226562 271.152344 L 154.808594 270.671875 L 153.296875 267.664062 C 152.464844 266.03125 151.285156 264.003906 150.671875 263.195312 L 149.558594 261.714844 L 150.214844 261.039062 C 151.265625 259.972656 151.15625 259.164062 149.863281 258.226562 C 149.273438 257.8125 148.488281 257.378906 148.070312 257.226562 C 146.976562 256.855469 144.003906 256.941406 140.089844 257.421875 C 135.039062 258.054688 131.035156 258.007812 128.390625 257.3125 C 125.679688 256.59375 123.710938 255.742188 121.828125 254.5 C 120.320312 253.496094 120.277344 253.433594 120.277344 252.558594 C 120.277344 250.359375 119.578125 247.875 118.636719 246.742188 C 118.503906 246.566406 118.222656 245.605469 118.046875 244.648438 C 117.847656 243.667969 117.28125 241.859375 116.753906 240.617188 C 114.789062 235.796875 114.832031 235.996094 114.808594 231.15625 C 114.808594 228.605469 114.65625 225.792969 114.480469 224.398438 C 114.304688 223.070312 114.152344 221.890625 114.152344 221.738281 C 114.152344 221.609375 114.65625 221.828125 115.269531 222.21875 C 117.105469 223.460938 123.558594 225.269531 129.023438 226.054688 C 131.800781 226.46875 132.871094 226.511719 137.707031 226.425781 L 143.214844 226.316406 L 143.371094 227.277344 C 143.433594 227.800781 143.457031 229.519531 143.414062 231.113281 C 143.324219 233.792969 143.214844 234.339844 141.96875 239.066406 C 141.226562 241.859375 140.613281 244.453125 140.613281 244.84375 C 140.613281 245.214844 140.8125 245.957031 141.050781 246.457031 C 141.402344 247.242188 141.578125 247.394531 142.078125 247.394531 C 142.953125 247.394531 144.679688 246.828125 145.402344 246.328125 L 146.039062 245.867188 L 146.476562 246.9375 C 146.847656 247.832031 146.867188 248.15625 146.695312 249.03125 C 146.539062 249.75 146.539062 250.335938 146.738281 251.054688 C 147.523438 254.28125 152.664062 258.992188 157.453125 260.886719 C 158.699219 261.386719 160.382812 261.800781 162.636719 262.171875 C 164.472656 262.476562 166.023438 262.695312 166.070312 262.628906 C 166.265625 262.457031 165.742188 260.363281 165.304688 259.535156 L 164.867188 258.664062 L 165.476562 258.816406 C 166.726562 259.144531 171.929688 259.207031 173.613281 258.945312 C 174.53125 258.816406 176.566406 258.269531 178.117188 257.75 C 180.832031 256.832031 181.113281 256.789062 184.351562 256.636719 C 187.804688 256.484375 188.289062 256.550781 191.632812 257.550781 C 191.9375 257.660156 192.003906 257.53125 192.003906 256.679688 C 192.003906 255.328125 191.394531 254.695312 188.964844 253.496094 C 187.871094 252.972656 186.976562 252.429688 186.976562 252.296875 C 186.976562 252.191406 187.214844 251.382812 187.523438 250.554688 C 187.804688 249.703125 188.070312 248.789062 188.070312 248.484375 C 188.070312 247.785156 189.335938 242.992188 189.578125 242.75 C 189.664062 242.664062 190.167969 242.773438 190.714844 243.011719 C 191.828125 243.535156 193.273438 243.601562 193.863281 243.164062 C 194.214844 242.90625 194.234375 242.796875 193.996094 242.207031 C 193.625 241.335938 191.917969 239.722656 190.671875 239.089844 C 188.636719 238.066406 184.132812 238.390625 176.257812 240.136719 C 172.453125 240.964844 171.230469 241.160156 168.167969 241.3125 C 162.21875 241.597656 161.652344 241.574219 161.5 241.074219 C 161.410156 240.832031 160.972656 240.203125 160.515625 239.65625 C 159.75 238.761719 159.707031 238.632812 159.878906 237.871094 C 160.1875 236.5625 160.121094 233.402344 159.75 232.222656 C 159.574219 231.636719 159.421875 230.699219 159.421875 230.152344 C 159.421875 228.5625 158.832031 227.015625 157.648438 225.46875 C 157.058594 224.660156 156.578125 224.007812 156.621094 223.960938 C 156.664062 223.941406 157.429688 223.746094 158.328125 223.527344 C 159.222656 223.308594 162.132812 222.503906 164.777344 221.738281 C 167.425781 220.976562 171.601562 219.777344 174.074219 219.058594 C 176.542969 218.339844 181.027344 217.207031 184.023438 216.550781 C 196.597656 213.761719 199.8125 212.585938 207.3125 208.074219 C 217.261719 202.121094 222.378906 198.394531 226.996094 193.773438 C 232.722656 188.0625 235.589844 183.203125 237.46875 176.074219 C 238.957031 170.472656 239.351562 167.007812 239.328125 159.664062 C 239.328125 153.015625 239.066406 150.007812 237.929688 143.292969 C 235.871094 131.371094 233.03125 124.941406 223.234375 110.335938 C 213.328125 95.535156 204.929688 78.707031 202.609375 68.988281 C 201.5625 64.605469 201.144531 59.746094 201.605469 57.652344 C 201.738281 57.042969 201.800781 57 202.71875 57.042969 C 203.550781 57.085938 203.8125 57.238281 204.886719 58.285156 C 206.746094 60.070312 210.8125 63.253906 214.046875 65.414062 C 219.40625 68.988281 222.488281 70.1875 227.367188 70.621094 C 231.5 70.96875 237.011719 72.234375 239.066406 73.304688 C 241.078125 74.328125 242.191406 74.414062 244.597656 73.671875 C 245.933594 73.257812 246.304688 73.019531 247.507812 71.800781 C 249.804688 69.488281 250.328125 67.789062 249.628906 65.0625 C 248.773438 61.773438 246.171875 59.242188 241.910156 57.542969 C 238.320312 56.125 234.757812 53.316406 228.984375 47.34375 C 224.742188 42.941406 223.101562 41.042969 222.378906 39.625 C 221.746094 38.382812 219.996094 32.890625 219.996094 32.105469 C 219.996094 31.734375 219.84375 31.257812 219.648438 31.0625 C 219.339844 30.753906 219.296875 30.40625 219.40625 28.945312 C 219.601562 26.59375 218.835938 18.613281 218.246094 16.695312 C 217.132812 13.121094 212.496094 8.085938 207.378906 4.925781 C 204.25 2.964844 201.191406 1.65625 197.734375 0.742188 C 195.371094 0.128906 190.738281 -0.128906 188.484375 0.21875 Z M 188.484375 0.21875 "/>
</g>
</svg>
